<svg height="512" viewBox="0 0 64 64" width="512" xmlns="http://www.w3.org/2000/svg"><g id="Filled_outline" data-name="Filled outline"><path d="m5 9h54v52h-54z" fill="#aabece"/><path d="m9 13h46v20h-46z" fill="#f4f4e6"/><path d="m55 57h-11v-12h-24v12h-11v-20h46z" fill="#f4f4e6"/><path d="m3 3v3l2 3h54l2-3v-3z" fill="#7d8d9c"/><path d="m20 45h24v16h-24z" fill="#aad5e8"/><path d="m20 45h24v4h-24z" fill="#394d5c"/><path d="m31 49h2v12h-2z" fill="#7d8d9c"/><path d="m39 23-3.776-3h-10.024l-4.2 4.294v4.706h4a2 2 0 0 0 4 0h6a2 2 0 0 0 4 0h6v-5z" fill="#de463e"/><g fill="#cfdfe8"><path d="m7.757 29h8.485v2h-8.485z" transform="matrix(.707 -.707 .707 .707 -17.698 17.272)"/><path d="m47.757 15h8.485v2h-8.485z" transform="matrix(.707 -.707 .707 .707 3.917 41.456)"/><path d="m40.55 15.5h9.899v2h-9.899z" transform="matrix(.707 -.707 .707 .707 1.659 37.006)"/><path d="m7.55 22.5h9.899v2h-9.899z" transform="matrix(.707 -.707 .707 .707 -12.956 15.722)"/></g><path d="m17 41h30v4h-30z" fill="#7d8d9c"/><path d="m7 3h2v3h-2z" fill="#cfdfe8"/><path d="m12 3h2v3h-2z" fill="#cfdfe8"/><path d="m36 3h2v3h-2z" fill="#cfdfe8"/><path d="m48 3h2v3h-2z" fill="#cfdfe8"/><path d="m27 54h2v2h-2z" fill="#fcf05a"/><path d="m35 54h2v2h-2z" fill="#fcf05a"/><path d="m61 2h-58a1 1 0 0 0 -1 1v3a1.006 1.006 0 0 0 .168.555l1.832 2.745v51.7a1 1 0 0 0 1 1h54a1 1 0 0 0 1-1v-51.7l1.832-2.748a1.006 1.006 0 0 0 .168-.552v-3a1 1 0 0 0 -1-1zm-40 58v-10h10v10zm0-12v-2h22v2zm-3-4v-2h28v2zm27 2h3v-6h-32v6h3v10h-9v-18h44v18h-9zm-12 14v-10h10v10zm25 0h-13v-2h11v-22h-48v22h11v2h-13v-50h52zm2-54.3-1.535 2.3h-52.93l-1.535-2.3v-1.7h3v2h2v-2h3v2h2v-2h22v2h2v-2h10v2h2v-2h10z"/><path d="m56 12h-48v22h48zm-19 20h-25.586l4.293-4.293-1.414-1.414-4.293 4.293v-3.172l6.707-6.707-1.414-1.414-5.293 5.293v-10.586h36.586l-5.293 5.293 1.414 1.414 6.707-6.707h3.172l-4.293 4.293 1.414 1.414 4.293-4.293v16.586z"/><path d="m39.829 30h6.171v-6.847l-6.581-1.1-3.847-3.053h-10.793l-4.779 4.886v6.114h4.171a3 3 0 0 0 5.658 0h4.342a3 3 0 0 0 5.658 0zm-1.829-1a1 1 0 0 1 -2 0v-1h-8v1a1 1 0 0 1 -2 0v-1h-4v-3.3l3.621-3.7h9.254l3.706 2.944 5.419.9v3.156h-6z"/><path d="m27 54h2v2h-2z"/><path d="m35 54h2v2h-2z"/></g></svg>